<svg width="100" height="100" viewBox="0 0 100 100" fill="none" xmlns="http://www.w3.org/2000/svg">
<path d="M20.332 76.7281V72.1345C19.2569 72.1226 18.1867 71.987 17.1426 71.7302V76.7281L20.4859 80.0874L22.0807 78.4847L20.332 76.7281Z" fill="#ED8B00" fill-opacity="0.5"/>
<path d="M21.4483 45.8184C21.4455 44.9553 21.1034 44.1279 20.4958 43.515C19.8882 42.902 19.0639 42.5526 18.2009 42.5422L14.5798 42.508L15.6515 41.7969C16.2637 41.3911 16.7806 40.8572 17.1665 40.2322C17.5523 39.6071 17.7979 38.9058 17.8862 38.1766C18.6907 37.7521 19.5338 37.4055 20.4042 37.1414C20.9491 36.9952 21.5031 36.8856 22.0626 36.8133C21.5308 36.7456 20.9953 36.7111 20.4593 36.71C19.3635 36.7112 18.2727 36.8562 17.2147 37.1414C16.3444 37.4055 15.5012 37.7521 14.6968 38.1766C14.6084 38.9058 14.3628 39.6071 13.977 40.2322C13.5912 40.8572 13.0743 41.3911 12.462 41.7969L11.3901 42.5074L15.0114 42.5416C15.8745 42.552 16.6989 42.9015 17.3065 43.5146C17.9142 44.1277 18.2562 44.9552 18.2589 45.8184C18.2592 45.9765 18.2907 46.1331 18.3516 46.2791C18.4125 46.4251 18.5016 46.5577 18.6138 46.6692C18.7259 46.7808 18.859 46.8691 19.0054 46.9291C19.1517 46.9892 19.3085 47.0198 19.4667 47.0191H22.6562C22.498 47.0198 22.3412 46.9892 22.1948 46.9291C22.0485 46.8691 21.9154 46.7808 21.8032 46.6692C21.691 46.5577 21.6019 46.4251 21.541 46.2791C21.4801 46.1331 21.4486 45.9765 21.4483 45.8184Z" fill="#ED8B00" fill-opacity="0.5"/>
<path d="M11.7205 58.3398V58.3203C11.7254 58.0915 11.6464 57.8688 11.4985 57.6943C11.3505 57.5197 11.1439 57.4052 10.9174 57.3725C10.7189 57.3043 10.2631 57.1145 10.1137 57.0453C9.71074 56.7827 9.39936 56.4013 9.22256 55.9541C9.04576 55.5068 9.01228 55.0156 9.12675 54.5484C9.20148 54.2367 9.37388 53.9569 9.61882 53.75C9.86375 53.5432 10.1684 53.42 10.4883 53.3984C10.6273 53.3856 10.7618 53.3424 10.8822 53.2719C12.6684 53.0486 14.1344 51.5129 14.3086 49.5918C14.4275 47.9926 15.1229 46.491 16.2656 45.366C16.1716 45.1027 15.9991 44.8746 15.7714 44.7124C15.5437 44.5502 15.2717 44.4617 14.9922 44.4588L14.1076 44.4502C12.2359 45.9049 11.3088 47.5018 11.1193 49.5918C10.9451 51.5129 9.47871 53.0488 7.69277 53.2719C7.57238 53.3424 7.43796 53.3856 7.29902 53.3984C6.97923 53.4199 6.67464 53.5429 6.42969 53.7496C6.18473 53.9563 6.01221 54.2358 5.9373 54.5475C5.82283 55.0146 5.85631 55.5058 6.03311 55.9531C6.20991 56.4004 6.52129 56.7817 6.92421 57.0443C7.07363 57.1135 7.52968 57.3033 7.72773 57.3715C7.95425 57.4042 8.16098 57.5186 8.30896 57.6932C8.45693 57.8678 8.53592 58.0905 8.53105 58.3193V58.3389C8.52836 60.0347 8.88924 61.7114 9.58937 63.256C10.2895 64.8006 11.3126 66.1771 12.5897 67.2928C13.8668 68.4085 15.3683 69.2375 16.9929 69.7239C18.6175 70.2103 20.3275 70.3427 22.0076 70.1123C19.1603 69.7232 16.5501 68.3168 14.6591 66.1528C12.7682 63.9888 11.7244 61.2136 11.7205 58.3398Z" fill="#ED8B00" fill-opacity="0.5"/>
<path d="M10.2805 79.1531L12.5934 78.3184L12.1059 77.3438L7.09102 79.1535C6.20701 79.6094 5.45195 80.2805 4.8954 81.1048C4.33884 81.9292 3.99868 82.8804 3.90625 83.8707V93.9047H7.0957V83.8707C7.1881 82.8803 7.52825 81.9291 8.08481 81.1046C8.64136 80.2802 9.39644 79.6091 10.2805 79.1531Z" fill="#ED8B00" fill-opacity="0.5"/>
<path d="M95.2994 3.90625H22.9977C21.2744 3.90625 19.9219 5.38008 19.9219 7.10313V13.1848C19.9219 14.908 21.2744 16.4062 22.9977 16.4062H23.8281V36.5234H26.1719V16.4062H91.9922V58.557C91.9922 61.2914 89.8869 63.4766 87.3143 63.4766H31.25V65.8203H56.6338L46.0947 77.175C45.9388 77.3431 45.8352 77.5529 45.7965 77.7788C45.7577 78.0048 45.7855 78.2371 45.8765 78.4475C45.9675 78.6579 46.1177 78.8373 46.3089 78.9639C46.5 79.0904 46.7239 79.1586 46.9531 79.1602C47.1142 79.161 47.2738 79.1284 47.4217 79.0646C47.5696 79.0007 47.7026 78.9069 47.8125 78.7891L59.1016 66.6484L70.3906 78.7908C70.4954 78.9036 70.6213 78.9946 70.7613 79.0586C70.9012 79.1227 71.0524 79.1586 71.2062 79.1642C71.36 79.1699 71.5134 79.1452 71.6576 79.0915C71.8019 79.0379 71.9341 78.9563 72.0469 78.8516C72.2747 78.6361 72.4087 78.3396 72.42 78.0262C72.4312 77.7128 72.3188 77.4075 72.107 77.1762L61.566 65.8203H87.3143C91.1793 65.8203 94.3359 62.5832 94.3359 58.557V16.4062H95.2994C97.0225 16.4062 98.4375 14.908 98.4375 13.1848V7.10313C98.436 6.26584 98.1068 5.4624 97.5202 4.86488C96.9337 4.26736 96.1365 3.92325 95.2994 3.90625ZM96.0938 13.0859C96.0938 13.2931 96.0114 13.4919 95.8649 13.6384C95.7184 13.7849 95.5197 13.8672 95.3125 13.8672H23.0469C22.8397 13.8672 22.641 13.7849 22.4944 13.6384C22.3479 13.4919 22.2656 13.2931 22.2656 13.0859V7.03125C22.2656 6.82405 22.3479 6.62534 22.4944 6.47882C22.641 6.33231 22.8397 6.25 23.0469 6.25H95.3125C95.5197 6.25 95.7184 6.33231 95.8649 6.47882C96.0114 6.62534 96.0938 6.82405 96.0938 7.03125V13.0859Z" fill="black"/>
<path d="M51.7578 41.0156C51.7578 40.7048 51.6343 40.4068 51.4146 40.187C51.1948 39.9672 50.8967 39.8438 50.5859 39.8438H45.8984C45.5876 39.8438 45.2896 39.9672 45.0698 40.187C44.85 40.4068 44.7266 40.7048 44.7266 41.0156V52.7344C44.7266 53.0452 44.85 53.3432 45.0698 53.563C45.2896 53.7828 45.5876 53.9062 45.8984 53.9062H50.5859C50.8967 53.9062 51.1948 53.7828 51.4146 53.563C51.6343 53.3432 51.7578 53.0452 51.7578 52.7344V41.0156ZM47.0703 42.1875H49.4141V51.5625H47.0703V42.1875Z" fill="black"/>
<path d="M62.6953 37.1094C62.6953 36.7986 62.5718 36.5005 62.3521 36.2807C62.1323 36.061 61.8342 35.9375 61.5234 35.9375H56.8359C56.5251 35.9375 56.2271 36.061 56.0073 36.2807C55.7875 36.5005 55.6641 36.7986 55.6641 37.1094V52.7344C55.6641 53.0452 55.7875 53.3432 56.0073 53.563C56.2271 53.7828 56.5251 53.9062 56.8359 53.9062H61.5234C61.8342 53.9062 62.1323 53.7828 62.3521 53.563C62.5718 53.3432 62.6953 53.0452 62.6953 52.7344V37.1094ZM58.0078 38.2812H60.3516V51.5625H58.0078V38.2812Z" fill="black"/>
<path d="M73.6328 29.2969C73.6328 28.9861 73.5093 28.688 73.2896 28.4682C73.0698 28.2485 72.7717 28.125 72.4609 28.125H67.7734C67.4626 28.125 67.1646 28.2485 66.9448 28.4682C66.725 28.688 66.6016 28.9861 66.6016 29.2969V52.7344C66.6016 53.0452 66.725 53.3432 66.9448 53.563C67.1646 53.7828 67.4626 53.9062 67.7734 53.9062H72.4609C72.7717 53.9062 73.0698 53.7828 73.2896 53.563C73.5093 53.3432 73.6328 53.0452 73.6328 52.7344V29.2969ZM68.9453 30.4688H71.2891V51.5625H68.9453V30.4688Z" fill="black"/>
<path d="M34.6549 77.2515C34.6139 77.2319 34.6125 77.2124 34.5693 77.1974L29.8818 75.4915V73.1673C29.8738 72.9322 29.7974 72.7045 29.662 72.5121C29.5265 72.3198 29.3378 72.1712 29.1191 72.0845C29.0354 72.0511 28.948 72.0277 28.8588 72.0146L25.8453 71.1915C28.2346 70.1806 30.2919 68.5189 31.7827 66.3957C33.2735 64.2725 34.1379 61.7731 34.2773 59.1825C35.2539 58.7706 36.0529 58.0259 36.5323 57.0807C37.0117 56.1355 37.1405 55.0509 36.8959 54.0196C36.7685 53.4818 36.5188 52.9807 36.1663 52.555C35.8138 52.1293 35.3679 51.7906 34.8633 51.5651L35.0309 50.4065C35.035 50.3782 35.0387 50.3497 35.0406 50.321C35.2065 47.9742 34.8089 45.6218 33.8811 43.4599C32.9533 41.298 31.5222 39.3891 29.707 37.8925C27.8918 36.3959 25.7451 35.3549 23.446 34.8563C21.1468 34.3577 18.7618 34.4159 16.4896 35.0261C15.481 35.3262 14.504 35.7237 13.5723 36.213C13.4128 36.2911 13.2525 36.3687 13.0914 36.4456C12.892 36.5411 12.7237 36.691 12.6059 36.878C12.4881 37.065 12.4256 37.2816 12.4256 37.5026C12.4262 37.9922 12.3054 38.4743 12.0741 38.9057C11.8428 39.3372 11.5082 39.7046 11.1002 39.9751L7.42832 42.4151C7.28207 42.512 7.15956 42.6406 7.06992 42.7913L6.85176 43.1573C6.82835 43.1965 6.80728 43.2371 6.78867 43.2788C5.80479 45.4893 5.37756 47.9072 5.54434 50.321C5.54629 50.3507 5.54941 50.3796 5.55371 50.4099L5.72187 51.5595C5.21379 51.7839 4.76452 52.1228 4.40922 52.5497C4.05392 52.9767 3.80222 53.48 3.67383 54.0204C3.4503 54.9318 3.52074 55.8905 3.87505 56.7595C4.22936 57.6284 4.8494 58.3631 5.64648 58.8583C5.84803 58.9723 6.05896 59.0688 6.27695 59.1468C6.43253 61.7395 7.30307 64.2385 8.79206 66.3667C10.2811 68.4949 12.3303 70.1692 14.7127 71.204L11.7082 72.0243L11.7119 72.038C11.6781 72.0509 11.6454 72.0666 11.6143 72.0851C11.4057 72.1766 11.2296 72.3288 11.1088 72.5219C10.9881 72.7151 10.9284 72.9401 10.9375 73.1677V75.4919L6.16465 77.1974C6.12168 77.213 6.05664 77.231 6.01562 77.2515C4.78318 77.8708 3.72929 78.7946 2.95382 79.9353C2.17834 81.076 1.70697 82.3958 1.58438 83.7696C1.58184 83.8019 1.5625 83.8343 1.5625 83.8673V94.8499C1.56281 95.1697 1.68596 95.4771 1.9065 95.7086C2.12704 95.9401 2.42811 96.078 2.74746 96.0938H37.9037C38.5508 96.0938 39.0625 95.4972 39.0625 94.8501V83.8673C39.0625 83.8347 39.0678 83.8022 39.065 83.7696C38.9466 82.3973 38.4793 81.078 37.7074 79.9372C36.9355 78.7963 35.8847 77.8718 34.6549 77.2515ZM25.7812 74.3085V73.6032L26.3453 73.7573L25.7812 74.3085ZM26.935 76.5226L23.849 82.4159L22.1643 81.2927L26.935 76.5226ZM12.3975 41.9271C13.0202 41.5143 13.5486 40.9745 13.948 40.3431C14.3474 39.7117 14.6088 39.0029 14.715 38.2634C15.4767 37.8641 16.2746 37.5381 17.0979 37.2896C19.0058 36.7808 21.0074 36.7338 22.9371 37.1525C24.8667 37.5712 26.6689 38.4435 28.1944 39.6973C29.7199 40.951 30.9248 42.5501 31.7093 44.3621C32.4938 46.1741 32.8354 48.147 32.7059 50.1173L32.4594 51.8384L32.3311 51.9972C32.3205 52.0155 32.3032 52.029 32.2828 52.0348C32.2625 52.0406 32.2407 52.0381 32.2221 52.028C32.1566 52.005 32.1566 52.0157 32.1566 51.9817C32.1549 51.3077 32.0201 50.6406 31.7599 50.0188C31.4998 49.397 31.1194 48.8327 30.6406 48.3582C30.1618 47.8838 29.5941 47.5085 28.97 47.254C28.3458 46.9995 27.6775 46.8707 27.0035 46.8751H19.2984C19.0295 46.8643 18.7752 46.7495 18.5892 46.5549C18.4032 46.3603 18.3 46.1011 18.3014 45.8319C18.2993 44.9082 17.9354 44.0221 17.2876 43.3636C16.6399 42.7051 15.7599 42.3267 14.8363 42.3095L11.9006 42.2689L12.3975 41.9271ZM8.59844 58.3058C8.59837 58.0267 8.49871 57.7568 8.3174 57.5447C8.13609 57.3325 7.88502 57.1921 7.60938 57.1485C7.41582 57.0806 6.99629 56.9099 6.84414 56.8409C6.47916 56.6026 6.19722 56.2568 6.03729 55.8513C5.87736 55.4457 5.84734 55.0006 5.95137 54.5773C6.01608 54.3084 6.16509 54.0674 6.3766 53.8893C6.58811 53.7112 6.85104 53.6054 7.12695 53.5874C7.43173 53.5593 7.71341 53.4131 7.91178 53.18C8.11015 52.9469 8.20946 52.6455 8.18848 52.3401L8.17637 52.1644C8.17441 52.1345 8.17109 52.1048 8.1668 52.0753L7.88047 50.1169C7.75636 48.2233 8.06583 46.3264 8.78535 44.5704L14.8131 44.6302C15.1219 44.6446 15.4133 44.7776 15.6265 45.0015C15.8398 45.2254 15.9584 45.5229 15.9576 45.8321C15.9569 46.7227 16.3072 47.5776 16.9326 48.2115C17.5579 48.8455 18.408 49.2074 19.2984 49.2189H27.0035C27.3699 49.2141 27.7336 49.282 28.0736 49.4186C28.4136 49.5553 28.7231 49.7579 28.9844 50.0149C29.2456 50.2718 29.4533 50.578 29.5955 50.9157C29.7377 51.2534 29.8116 51.6159 29.8129 51.9823C29.8094 52.4853 29.9649 52.9765 30.2573 53.3859C30.5497 53.7952 30.9639 54.1016 31.4408 54.2614C31.8639 54.4127 32.3208 54.4428 32.76 54.3486C33.1993 54.2543 33.6036 54.0393 33.9273 53.7278C34.1019 53.8068 34.2558 53.925 34.377 54.0733C34.4983 54.2216 34.5835 54.396 34.6262 54.5827C34.6939 54.8602 34.7046 55.1485 34.6575 55.4301C34.6104 55.7118 34.5065 55.9809 34.3522 56.2212C34.1979 56.4615 33.9963 56.668 33.7598 56.828C33.5232 56.988 33.2566 57.0982 32.9762 57.1521C32.7076 57.2009 32.4651 57.3436 32.292 57.5547C32.119 57.7657 32.0265 58.0315 32.0312 58.3044V58.3251C32.0287 61.4325 30.7918 64.4116 28.5927 66.607C26.3936 68.8024 23.4125 70.0343 20.3051 70.0317C17.1977 70.0292 14.2186 68.7923 12.0232 66.5932C9.82777 64.3941 8.59585 61.413 8.59844 58.3056V58.3058ZM14.8438 73.6015V74.3198L14.2795 73.7556L14.8438 73.6015ZM18.4861 81.2927L16.8012 82.4159L13.716 76.5235L18.4861 81.2927ZM19.1406 93.7501H3.90625V83.9185C4.00177 82.9665 4.3323 82.0532 4.86814 81.2605C5.40399 80.4679 6.12836 79.8208 6.97617 79.3774L11.6748 77.6831L15.3271 84.6571C15.4266 84.8467 15.576 85.0054 15.7592 85.1162C15.9424 85.2269 16.1523 85.2855 16.3664 85.2854C16.5961 85.2855 16.8205 85.217 17.0109 85.0886L19.1406 83.6644V93.7501ZM17.1875 76.6636V72.0099C18.1995 72.2459 19.2353 72.3646 20.2744 72.3636C21.3398 72.3662 22.4017 72.2415 23.4375 71.9923V76.6517L20.3068 79.8169L17.1875 76.6636ZM36.7188 93.7501H21.4844V83.6644L23.6271 85.0886C23.7643 85.1799 23.9191 85.2414 24.0815 85.2692C24.2439 85.2969 24.4104 85.2902 24.5701 85.2495C24.7297 85.2089 24.8791 85.1351 25.0085 85.0331C25.1378 84.931 25.2444 84.8029 25.3211 84.6571L28.9725 77.6831L33.6617 79.3774C34.5079 79.8215 35.2304 80.4691 35.764 81.2618C36.2977 82.0545 36.6258 82.9676 36.7188 83.9187V93.7501Z" fill="black"/>
<path d="M23.5246 93.2038C24.3175 93.2038 24.9604 92.5609 24.9604 91.768C24.9604 90.9751 24.3175 90.3323 23.5246 90.3323C22.7317 90.3323 22.0889 90.9751 22.0889 91.768C22.0889 92.5609 22.7317 93.2038 23.5246 93.2038Z" fill="black"/>
<path d="M23.5246 89.3563C24.3175 89.3563 24.9604 88.7135 24.9604 87.9206C24.9604 87.1277 24.3175 86.4849 23.5246 86.4849C22.7317 86.4849 22.0889 87.1277 22.0889 87.9206C22.0889 88.7135 22.7317 89.3563 23.5246 89.3563Z" fill="black"/>
</svg>
