<svg width="100" height="100" viewBox="0 0 100 100" fill="none" xmlns="http://www.w3.org/2000/svg">
<path d="M17.0977 78.259C19.4553 75.8494 22.121 73.7619 25.0256 72.0508C28.0693 79.4027 32.8523 85.4512 39.0604 89.6338C30.7077 88.2996 23.0068 84.3112 17.0977 78.259Z" fill="#ED8B00" fill-opacity="0.5"/>
<path d="M24.1734 33.7345C22.3594 38.8499 21.3477 44.5312 21.2318 50.5858H6.26953C6.54057 41.9029 9.80557 33.5807 15.5111 27.0298C18.083 29.645 20.9969 31.9004 24.1734 33.7345Z" fill="#ED8B00" fill-opacity="0.5"/>
<path d="M21.2318 52.9297C21.3473 58.9844 22.3594 64.699 24.1734 69.8146C20.9974 71.6427 18.0835 73.8924 15.5111 76.5023C9.80522 69.9451 6.54045 61.6177 6.26953 52.9297H21.2318Z" fill="#ED8B00" fill-opacity="0.5"/>
<path d="M39.0605 13.9491C32.8518 18.1317 28.0693 24.1798 25.0256 31.5321C22.121 29.821 19.4553 27.7335 17.0977 25.3239C23.0069 19.2717 30.7079 15.2833 39.0605 13.9491Z" fill="#ED8B00" fill-opacity="0.5"/>
<path d="M45.407 92.4838C68.2906 92.4838 86.908 74.2293 86.908 51.7914C86.908 51.1939 86.8949 50.3461 86.8725 49.4635L84.5287 49.5234C84.5508 50.3863 84.5635 51.2129 84.5635 51.7914C84.559 60.9342 81.2338 69.7642 75.2064 76.6389C72.6552 74.0182 69.7636 71.7519 66.6094 69.9006C68.4434 64.7621 69.4664 58.9844 69.5824 52.9297H69.7266V50.5859H46.4844V39.3729C49.5869 39.2933 52.6716 38.8756 55.6836 38.1272L55.0908 35.8537C52.2729 36.5556 49.3873 36.9497 46.4844 37.0291V13.6523C49.206 14.9808 51.733 16.6755 53.9949 18.6895L55.5795 16.9412C54.3642 15.8543 53.076 14.8519 51.7238 13.941C53.8296 14.2753 55.905 14.7789 57.9297 15.4471L58.668 13.2219C54.3892 11.8104 49.9118 11.0937 45.4062 11.099C22.5221 11.099 3.90625 29.3535 3.90625 51.7914C3.90625 74.2293 22.5234 92.4838 45.407 92.4838ZM17.0975 78.259C19.4551 75.8494 22.1208 73.7619 25.0254 72.0508C28.0691 79.4027 32.8521 85.4512 39.0602 89.6338C30.7075 88.2996 23.0066 84.3112 17.0975 78.259ZM24.1734 33.7346C22.3594 38.85 21.3477 44.5313 21.2318 50.5859H6.26953C6.54057 41.903 9.80556 33.5808 15.5111 27.0299C18.083 29.6451 20.9969 31.9005 24.1734 33.7346ZM44.1406 89.9365C36.5234 86.0803 30.4641 79.4166 27.0004 70.9104C32.3197 68.2042 38.1747 66.716 44.1406 66.5539V89.9365ZM46.4844 66.5543C52.4486 66.722 58.2979 68.2353 63.5951 70.9811C60.1277 79.4531 54.2969 86.091 46.4844 89.9365V66.5543ZM44.1406 64.2084C37.911 64.3747 31.7933 65.9032 26.2176 68.6865C24.5648 63.9063 23.6881 58.5938 23.576 52.9297H44.1406V64.2084ZM21.2318 52.9297C21.3473 58.9844 22.3594 64.699 24.1734 69.8147C20.9974 71.6427 18.0835 73.8924 15.5111 76.5023C9.80521 69.9451 6.54045 61.6177 6.26953 52.9297H21.2318ZM73.6133 78.3625C67.7171 84.3571 60.0569 88.3068 51.7539 89.6336C57.9385 85.4668 62.7084 79.4482 65.7537 72.1336C68.6344 73.8577 71.2767 75.9518 73.6133 78.3625ZM67.2383 52.9297C67.1525 58.317 66.2212 63.6574 64.4783 68.7557C58.8972 65.9099 52.7474 64.3559 46.4844 64.209V52.9297H67.2383ZM23.576 50.5859C23.6881 44.9219 24.5648 39.6424 26.2176 34.8633C31.791 37.6574 37.9086 39.1973 44.1406 39.375V50.5859H23.576ZM27.0004 32.6723C30.4643 24.166 36.5234 17.5025 44.1406 13.6461V37.0289C38.1747 36.8668 32.3197 35.3786 27.0004 32.6723ZM39.0604 13.949C32.8516 18.1316 28.0691 24.1797 25.0254 31.532C22.1208 29.8209 19.4551 27.7335 17.0975 25.3238C23.0067 19.2717 30.7077 15.2832 39.0604 13.949Z" fill="black"/>
<path d="M97.1483 27.5496L92.8642 27.1383C92.3899 25.35 91.6662 23.6374 90.7146 22.0508L93.4239 18.774C93.609 18.55 93.7042 18.2652 93.6912 17.975C93.6781 17.6847 93.5577 17.4096 93.3532 17.2031L88.5601 12.3496C88.3541 12.1409 88.0773 12.0169 87.7844 12.0023C87.4915 11.9876 87.2038 12.0834 86.978 12.2705L83.6938 14.99C82.107 14.0444 80.3974 13.3221 78.6132 12.8436L78.203 8.52852C78.177 8.23335 78.0439 7.9579 77.8288 7.75406C77.6138 7.55022 77.3316 7.43207 77.0354 7.42188H70.1546C69.8587 7.4324 69.5768 7.55068 69.362 7.75449C69.1472 7.95829 69.0142 8.23356 68.9882 8.52852L68.577 12.8193C66.7885 13.2946 65.0758 14.0194 63.4894 14.9723L60.2124 12.2645C59.9873 12.0787 59.7009 11.9836 59.4094 11.9979C59.1179 12.0121 58.8422 12.1346 58.6362 12.3414L53.7831 17.1961C53.5768 17.4026 53.4549 17.6786 53.4412 17.9702C53.4275 18.2617 53.523 18.5479 53.7091 18.7729L56.4288 22.0576C55.4832 23.6444 54.7609 25.354 54.2823 27.1381L50.0487 27.5494C49.7623 27.5789 49.4975 27.7155 49.3074 27.9318C49.1173 28.1481 49.0159 28.4282 49.0233 28.716V35.5967C49.0159 35.8845 49.1173 36.1646 49.3074 36.3809C49.4975 36.5972 49.7623 36.7338 50.0487 36.7633L54.2987 37.1734C54.7671 38.9611 55.485 40.6738 56.4312 42.2611L53.7134 45.5391C53.527 45.7635 53.431 46.0495 53.4443 46.3409C53.4576 46.6324 53.5791 46.9084 53.7851 47.115L58.6372 51.9686C58.8435 52.1748 59.1194 52.2967 59.4108 52.3103C59.7022 52.324 59.9883 52.2284 60.213 52.0424L63.497 49.3227C65.0836 50.2683 66.7931 50.9906 68.577 51.4691L68.9882 55.7568C69.0153 56.0489 69.1494 56.3206 69.3647 56.5198C69.58 56.719 69.8613 56.8316 70.1546 56.8359H77.0354C77.3287 56.8316 77.6101 56.719 77.8254 56.5198C78.0407 56.3206 78.1749 56.0489 78.202 55.7568L78.6132 51.4795C80.4014 51.0066 82.1142 50.2842 83.7009 49.3336L86.9776 52.0449C87.2025 52.2309 87.4888 52.3263 87.7803 52.3124C88.0718 52.2985 88.3476 52.1763 88.5538 51.9697L93.4071 47.1158C93.6136 46.9095 93.7356 46.6335 93.7493 46.342C93.763 46.0504 93.6673 45.7642 93.4812 45.5395L90.7616 42.2551C91.7075 40.6681 92.4299 38.9581 92.9083 37.1736L97.1501 36.7635C97.4435 36.7365 97.7167 36.6028 97.918 36.3878C98.1193 36.1727 98.2346 35.8912 98.2421 35.5967V28.716C98.2346 28.4213 98.119 28.1396 97.9173 27.9246C97.7156 27.7095 97.442 27.5761 97.1483 27.5496ZM95.8983 34.5336L91.8845 34.9219C91.6355 34.9455 91.4002 35.0468 91.2121 35.2116C91.0239 35.3763 90.8923 35.5961 90.836 35.8398C90.3672 37.9335 89.5237 39.9251 88.3464 41.7188C88.2108 41.9276 88.1453 42.1742 88.1594 42.4228C88.1734 42.6714 88.2663 42.9091 88.4245 43.1014L90.9978 46.2115L87.6522 49.5562L84.5415 46.9807C84.3473 46.8198 84.1065 46.7259 83.8547 46.7129C83.6029 46.6998 83.3536 46.7683 83.1438 46.9082C81.3594 48.0887 79.3709 48.9267 77.2798 49.3795C77.0355 49.4363 76.8153 49.5686 76.6503 49.7575C76.4853 49.9464 76.384 50.1825 76.3606 50.4322L75.9712 54.4922H71.219L70.8298 50.4328C70.8063 50.1844 70.7049 49.9497 70.54 49.7625C70.3751 49.5752 70.1553 49.4448 69.9118 49.39C67.8183 48.9225 65.8266 48.0803 64.0329 46.9039C63.8238 46.7685 63.5771 46.7033 63.3284 46.7177C63.0798 46.732 62.8422 46.8253 62.6501 46.9838L59.5397 49.558L56.1948 46.2129L58.7694 43.1023C58.9303 42.9082 59.0242 42.6673 59.0372 42.4155C59.0503 42.1637 58.9818 41.9145 58.8419 41.7047C57.6616 39.92 56.8239 37.9311 56.3714 35.8398C56.3263 35.5995 56.2046 35.3803 56.0246 35.2148C55.8445 35.0494 55.6158 34.9466 55.3726 34.9219L51.3671 34.5324V29.7805L55.3726 29.391C55.6177 29.3667 55.8487 29.2644 56.0315 29.0992C56.2142 28.934 56.3393 28.7145 56.3882 28.473C56.8508 26.3802 57.6885 24.3885 58.8608 22.5941C58.9953 22.3844 59.0594 22.1372 59.0438 21.8886C59.0283 21.6399 58.9339 21.4027 58.7743 21.2113L56.1962 18.1012L59.5401 14.7559L62.6499 17.3314C62.844 17.4922 63.0848 17.586 63.3365 17.5991C63.5882 17.6121 63.8374 17.5437 64.0472 17.4039C65.8314 16.2233 67.82 15.3853 69.911 14.9328C70.1569 14.8697 70.3773 14.732 70.5417 14.5385C70.706 14.3451 70.8064 14.1054 70.829 13.8525L71.219 9.76562H75.9712L76.3605 13.8525C76.3836 14.1026 76.4847 14.339 76.6494 14.5286C76.8141 14.7182 77.0341 14.8513 77.2784 14.9092C79.3726 15.379 81.3646 16.2236 83.1581 17.4023C83.3668 17.5382 83.6134 17.604 83.862 17.5903C84.1106 17.5766 84.3484 17.484 84.5409 17.326L87.6464 14.7578L90.9384 18.0938L88.3593 21.2109C88.1984 21.4051 88.1044 21.646 88.0913 21.8978C88.0782 22.1497 88.1467 22.399 88.2866 22.6088C89.4673 24.3932 90.3055 26.3819 90.7583 28.473C90.8183 28.7182 90.9535 28.9384 91.1448 29.103C91.3362 29.2676 91.5741 29.3683 91.8255 29.391L95.8991 29.7816L95.8983 34.5336Z" fill="black"/>
<path d="M73.5952 17.5879C70.7138 17.5879 67.8972 18.4424 65.5014 20.0432C63.1057 21.6441 61.2384 23.9194 60.1358 26.5814C59.0331 29.2435 58.7447 32.1727 59.3068 34.9987C59.869 37.8248 61.2565 40.4206 63.294 42.458C65.3314 44.4955 67.9273 45.883 70.7533 46.4451C73.5793 47.0072 76.5086 46.7187 79.1706 45.616C81.8327 44.5133 84.1079 42.6461 85.7087 40.2503C87.3096 37.8545 88.164 35.0378 88.164 32.1564C88.1596 28.2939 86.6233 24.5908 83.8921 21.8596C81.1608 19.1284 77.4578 17.5922 73.5952 17.5879ZM73.5952 44.3811C71.1774 44.3811 68.8138 43.6642 66.8034 42.321C64.7929 40.9777 63.226 39.0685 62.3007 36.8347C61.3754 34.6009 61.1332 32.1429 61.6049 29.7715C62.0766 27.4001 63.2408 25.2218 64.9505 23.5121C66.6602 21.8024 68.8385 20.6381 71.2099 20.1663C73.5813 19.6946 76.0393 19.9367 78.2731 20.862C80.5069 21.7873 82.4162 23.3542 83.7595 25.3646C85.1027 27.375 85.8197 29.7386 85.8196 32.1564C85.816 35.3975 84.5269 38.5047 82.2351 40.7964C79.9434 43.0882 76.8362 44.3773 73.5952 44.3811Z" fill="black"/>
</svg>
