<svg width="100" height="100" viewBox="0 0 100 100" fill="none" xmlns="http://www.w3.org/2000/svg">
<path d="M41.6104 70.7031L44.5975 91.0156H48.5037L45.5166 70.7031H41.6104Z" fill="#ED8B00" fill-opacity="0.5"/>
<path d="M41.0361 66.7969L41.2658 68.3594H45.1721L44.9424 66.7969H41.0361Z" fill="#ED8B00" fill-opacity="0.5"/>
<path d="M43.7804 20.6055C43.7843 17.8892 44.7461 15.2613 46.4967 13.1844C48.2472 11.1075 50.6743 9.71461 53.3508 9.25098C51.6957 8.96441 49.998 9.04312 48.3765 9.48162C46.7551 9.92011 45.2491 10.7078 43.964 11.7894C42.679 12.8711 41.6459 14.2206 40.9372 15.7435C40.2285 17.2664 39.8613 18.9258 39.8613 20.6055C39.8613 22.2852 40.2285 23.9446 40.9372 25.4674C41.6459 26.9903 42.679 28.3398 43.964 29.4215C45.2491 30.5032 46.7551 31.2908 48.3765 31.7293C49.998 32.1678 51.6957 32.2465 53.3508 31.96C50.6743 31.4963 48.2472 30.1035 46.4967 28.0265C44.7461 25.9496 43.7843 23.3217 43.7804 20.6055Z" fill="#ED8B00" fill-opacity="0.5"/>
<path d="M51.398 6.73828C48.6553 6.73828 45.9742 7.55158 43.6938 9.07532C41.4133 10.5991 39.6359 12.7648 38.5863 15.2987C37.5368 17.8326 37.2622 20.6209 37.7972 23.3108C38.3323 26.0008 39.653 28.4717 41.5924 30.411C43.5317 32.3504 46.0026 33.6711 48.6926 34.2062C51.3826 34.7413 54.1708 34.4667 56.7047 33.4171C59.2386 32.3675 61.4044 30.5901 62.9281 28.3097C64.4518 26.0292 65.2651 23.3481 65.2651 20.6055C65.261 16.9289 63.7986 13.4042 61.1989 10.8045C58.5992 8.20482 55.0745 6.74247 51.398 6.73828ZM51.398 32.1289C49.1188 32.1289 46.8909 31.4531 44.9959 30.1869C43.1009 28.9206 41.6239 27.1209 40.7517 25.0153C39.8795 22.9097 39.6513 20.5927 40.0959 18.3574C40.5406 16.122 41.6381 14.0687 43.2497 12.4572C44.8612 10.8456 46.9145 9.74808 49.1498 9.30345C51.3852 8.85882 53.7022 9.08702 55.8078 9.9592C57.9134 10.8314 59.7131 12.3084 60.9793 14.2034C62.2456 16.0984 62.9214 18.3263 62.9214 20.6055C62.918 23.6606 61.7028 26.5897 59.5425 28.75C57.3822 30.9103 54.4531 32.1255 51.398 32.1289Z" fill="black"/>
<path d="M51.1029 19.9249H51.0807C50.8676 19.9261 50.6563 19.8853 50.459 19.8047C50.2617 19.7241 50.0822 19.6054 49.9308 19.4554C49.7795 19.3053 49.6592 19.1269 49.5769 18.9303C49.4945 18.7337 49.4518 18.5228 49.4511 18.3097C49.4479 17.8706 49.6177 17.4478 49.9236 17.1328C50.0726 16.977 50.251 16.8522 50.4484 16.7656C50.6458 16.679 50.8584 16.6323 51.074 16.6282H51.0809C51.5177 16.642 51.932 16.8252 52.2361 17.139C52.5403 17.4528 52.7105 17.8725 52.7107 18.3095C52.7099 18.5909 52.8177 18.8618 53.0116 19.0657C53.2056 19.2697 53.4707 19.391 53.7517 19.4044H53.7561C54.0358 19.3958 54.301 19.2779 54.4949 19.0761C54.6887 18.8742 54.7957 18.6045 54.793 18.3246C54.7887 17.5203 54.5251 16.7388 54.0412 16.0963C53.5573 15.4538 52.8791 14.9846 52.1072 14.7583L52.1048 14.1874C52.1041 14.0515 52.0766 13.917 52.0239 13.7916C51.9712 13.6663 51.8943 13.5526 51.7976 13.457C51.7009 13.3614 51.5863 13.2858 51.4604 13.2345C51.3345 13.1832 51.1997 13.1572 51.0637 13.158H51.0594C50.9235 13.1566 50.7886 13.1822 50.6627 13.2334C50.5367 13.2845 50.4222 13.3602 50.3257 13.4559C50.2293 13.5517 50.1528 13.6657 50.1007 13.7913C50.0487 13.9168 50.0221 14.0515 50.0225 14.1874L50.0249 14.755C49.1701 15.0066 48.4347 15.5581 47.9539 16.3083C47.473 17.0585 47.2789 17.957 47.4073 18.8388C47.5356 19.7206 47.9777 20.5265 48.6525 21.1085C49.3272 21.6905 50.1893 22.0095 51.0804 22.007H51.1028C51.5328 22.0114 51.9438 22.1844 52.2476 22.4887C52.5514 22.7931 52.7236 23.2045 52.7272 23.6344C52.7309 24.0644 52.5656 24.4787 52.267 24.7881C51.9685 25.0975 51.5604 25.2774 51.1305 25.2891C51.125 25.2891 51.1196 25.3037 51.1132 25.3037H51.1087C51.1014 25.3037 51.0943 25.2907 51.0868 25.2908C50.6622 25.2943 50.2536 25.1289 49.9508 24.8312C49.648 24.5335 49.4758 24.1277 49.4721 23.7031C49.4709 23.5685 49.4428 23.4356 49.3895 23.312C49.3363 23.1885 49.2589 23.0768 49.162 22.9835C49.0651 22.8902 48.9505 22.8171 48.825 22.7686C48.6995 22.7201 48.5656 22.6972 48.4311 22.701H48.4267C48.2922 22.6967 48.1582 22.7195 48.0326 22.768C47.9071 22.8165 47.7925 22.8897 47.6958 22.9833C47.5991 23.0769 47.5222 23.189 47.4696 23.3129C47.4171 23.4368 47.3899 23.57 47.3898 23.7046C47.3949 24.5043 47.6595 25.2808 48.1438 25.9171C48.6282 26.5535 49.3061 27.0153 50.0756 27.2331L50.0786 27.9218C50.0793 28.0575 50.1069 28.1918 50.1597 28.3169C50.2124 28.442 50.2894 28.5555 50.3861 28.6507C50.4828 28.746 50.5974 28.8213 50.7233 28.8722C50.8492 28.9231 50.9838 28.9486 51.1196 28.9474H51.1241C51.2608 28.9471 51.3962 28.9198 51.5223 28.8671C51.6485 28.8143 51.763 28.7373 51.8593 28.6402C51.9556 28.5432 52.0318 28.4281 52.0836 28.3015C52.1353 28.1749 52.1616 28.0394 52.1608 27.9027L52.1579 27.2059C53.0132 26.9509 53.7482 26.3968 54.2287 25.6448C54.7093 24.8928 54.9033 23.993 54.7753 23.1097C54.6473 22.2265 54.2059 21.4187 53.5317 20.834C52.8575 20.2493 51.9954 19.9266 51.1029 19.9249Z" fill="black"/>
<path d="M65.7795 42.5977C63.5019 42.1652 61.1656 42.1412 58.8797 42.5268C53.8992 43.3823 50.2416 46.2143 48.3052 50.7166C48.2404 50.8675 48.2079 51.0304 48.2101 51.1946C48.2122 51.3589 48.2488 51.5208 48.3175 51.67C48.3863 51.8192 48.4856 51.9522 48.6091 52.0605C48.7326 52.1688 48.8775 52.25 49.0343 52.2987C50.4044 52.7323 51.8321 52.9562 53.2691 52.9627C56.4228 52.9627 59.4314 51.8239 62.13 49.5803C63.9083 48.093 65.4081 46.3015 66.5593 44.2893C66.6438 44.13 66.6903 43.9533 66.6953 43.7731C66.7003 43.5928 66.6636 43.4139 66.5882 43.2501C66.5127 43.0864 66.4005 42.9422 66.2602 42.8289C66.1199 42.7156 65.9554 42.6362 65.7795 42.5969V42.5977ZM60.5759 47.825C57.6734 50.2145 54.4808 51.0782 51.0697 50.4018C52.772 47.3686 55.5033 45.5032 59.2049 44.8492C60.6348 44.6063 62.0893 44.5419 63.5351 44.6576C62.6837 45.8321 61.6897 46.8962 60.5759 47.8256V47.825Z" fill="black"/>
<path d="M42.2265 51.2352C42.4767 51.2353 42.7202 51.1553 42.9216 51.007C43.123 50.8587 43.2717 50.6498 43.3459 50.411C44.7988 45.7303 43.8594 41.2016 40.6283 37.3149C39.1411 35.5367 37.3496 34.037 35.3375 32.8858C35.1782 32.8013 35.0015 32.7548 34.8213 32.7497C34.641 32.7447 34.462 32.7813 34.2982 32.8568C34.1345 32.9322 33.9903 33.0444 33.877 33.1847C33.7637 33.325 33.6842 33.4895 33.6449 33.6655C33.2126 35.943 33.1886 38.2793 33.574 40.5653C34.4295 45.5467 37.2613 49.2036 41.7635 51.1399C41.9097 51.2028 42.0673 51.2352 42.2265 51.2352ZM41.449 48.3756C38.416 46.6731 36.5506 43.942 35.8965 40.2401C35.6533 38.8093 35.5891 37.3539 35.7053 35.9073C36.86 36.7452 37.908 37.721 38.826 38.8131C41.25 41.7299 42.1289 44.9415 41.4486 48.3756H41.449Z" fill="black"/>
<path d="M63.1164 64.453H51.5883C51.55 64.288 51.4697 64.1356 51.3551 64.0108C47.0387 59.2157 45.7166 53.487 47.4242 47.0321C48.2513 43.9834 49.6021 41.1016 51.4162 38.5155C51.6043 38.2682 51.6867 37.9565 51.6454 37.6485C51.6042 37.3406 51.4426 37.0615 51.1961 36.8725C50.9496 36.6834 50.6382 36.5997 50.3301 36.6397C50.022 36.6796 49.7422 36.8401 49.5521 37.0858C47.5632 39.9052 46.0832 43.051 45.1791 46.3807C43.3898 53.0604 44.5846 59.1802 48.6268 64.4536H39.6789C39.5141 64.4425 39.3489 64.4687 39.1956 64.5302C39.0423 64.5918 38.9048 64.6871 38.7934 64.8091C38.682 64.9311 38.5995 65.0766 38.5521 65.2348C38.5047 65.3931 38.4936 65.56 38.5195 65.7231L42.4258 92.3223C42.4654 92.6043 42.6035 92.8631 42.8157 93.0529C43.028 93.2427 43.3005 93.3513 43.5852 93.3593H59.2102C59.4961 93.3485 59.7691 93.2374 59.9812 93.0453C60.1933 92.8532 60.3308 92.5925 60.3697 92.3091L64.276 65.7221C64.3002 65.5613 64.2882 65.397 64.2409 65.2414C64.1936 65.0857 64.1122 64.9425 64.0025 64.8223C63.8906 64.7 63.7534 64.6035 63.6003 64.5397C63.4472 64.4759 63.2821 64.4463 63.1164 64.453ZM61.7596 66.7968L61.5297 68.3593H41.2656L41.0359 66.7968H61.7596ZM58.1981 91.0155H44.5975L41.6103 70.703H61.1852L58.1981 91.0155Z" fill="black"/>
</svg>
