<svg width="100" height="100" viewBox="0 0 100 100" fill="none" xmlns="http://www.w3.org/2000/svg">
<path d="M83.4079 21.0763C81.8667 21.0775 80.355 20.6537 79.039 19.8516C77.7229 19.0495 76.6535 17.9001 75.9482 16.5297C75.243 15.1594 74.9292 13.6211 75.0414 12.0839C75.1536 10.5468 75.6874 9.07036 76.5841 7.81689C75.5921 8.52415 74.7661 9.4391 74.1637 10.4981C73.5612 11.557 73.1968 12.7346 73.0958 13.9487C72.9947 15.1628 73.1595 16.3844 73.5786 17.5284C73.9977 18.6723 74.6611 19.7112 75.5226 20.5727C76.3841 21.4342 77.4229 22.0976 78.5669 22.5168C79.7108 22.9359 80.9324 23.1007 82.1465 22.9997C83.3607 22.8987 84.5382 22.5344 85.5972 21.932C86.6562 21.3296 87.5712 20.5036 88.2785 19.5116C86.8589 20.5305 85.1553 21.0778 83.4079 21.0763Z" fill="#ED8B00" fill-opacity="0.5"/>
<path d="M83.4078 55.4952C81.8666 55.4964 80.3549 55.0727 79.0388 54.2706C77.7228 53.4685 76.6534 52.3191 75.9481 50.9487C75.2429 49.5783 74.9291 48.04 75.0413 46.5029C75.1534 44.9658 75.6872 43.4893 76.584 42.2358C75.5918 42.943 74.7656 43.858 74.1631 44.917C73.5605 45.976 73.1959 47.1536 73.0948 48.3678C72.9937 49.5821 73.1585 50.8037 73.5776 51.9478C73.9967 53.0919 74.6602 54.1309 75.5218 54.9924C76.3833 55.854 77.4223 56.5174 78.5664 56.9365C79.7105 57.3556 80.9322 57.5204 82.1464 57.4192C83.3606 57.3181 84.5382 56.9535 85.5972 56.351C86.6562 55.7484 87.5711 54.9222 88.2783 53.93C86.8589 54.9491 85.1552 55.4966 83.4078 55.4952Z" fill="#ED8B00" fill-opacity="0.5"/>
<path d="M83.4078 89.9137C81.8666 89.9149 80.3549 89.4911 79.0388 88.689C77.7228 87.8869 76.6534 86.7375 75.9481 85.3671C75.2429 83.9967 74.9291 82.4585 75.0413 80.9213C75.1534 79.3842 75.6872 77.9078 76.584 76.6543C75.5918 77.3615 74.7656 78.2764 74.1631 79.3354C73.5605 80.3944 73.1959 81.572 73.0948 82.7863C72.9937 84.0005 73.1585 85.2222 73.5776 86.3663C73.9967 87.5103 74.6602 88.5493 75.5218 89.4109C76.3833 90.2724 77.4223 90.9358 78.5664 91.355C79.7105 91.7741 80.9322 91.9388 82.1464 91.8377C83.3606 91.7365 84.5382 91.372 85.5972 90.7694C86.6562 90.1668 87.5711 89.3406 88.2783 88.3484C86.8589 89.3675 85.1552 89.915 83.4078 89.9137Z" fill="#ED8B00" fill-opacity="0.5"/>
<path d="M82.0407 38.0574C79.918 38.0574 77.843 38.6868 76.078 39.8661C74.313 41.0455 72.9374 42.7217 72.1251 44.6828C71.3128 46.6439 71.1002 48.8019 71.5143 50.8838C71.9285 52.9658 72.9506 54.8781 74.4516 56.3791C75.9526 57.8801 77.865 58.9023 79.9469 59.3164C82.0288 59.7305 84.1868 59.518 86.1479 58.7056C88.109 57.8933 89.7852 56.5177 90.9645 54.7527C92.1439 52.9878 92.7733 50.9127 92.7733 48.79C92.7701 45.9445 91.6383 43.2165 89.6263 41.2044C87.6142 39.1924 84.8862 38.0606 82.0407 38.0574ZM82.0407 57.1785C80.3815 57.1785 78.7596 56.6865 77.3801 55.7647C76.0005 54.8429 74.9253 53.5327 74.2904 51.9998C73.6555 50.4669 73.4894 48.7802 73.8131 47.1529C74.1368 45.5256 74.9358 44.0308 76.109 42.8576C77.2823 41.6845 78.7771 40.8855 80.4044 40.5619C82.0317 40.2382 83.7184 40.4044 85.2513 41.0394C86.7841 41.6744 88.0942 42.7497 89.016 44.1293C89.9377 45.5089 90.4296 47.1308 90.4296 48.79C90.427 51.0141 89.5423 53.1463 87.9697 54.7189C86.397 56.2915 84.2648 57.1761 82.0407 57.1787V57.1785Z" fill="black"/>
<path d="M85.5683 45.2232L80.7978 49.8808L78.514 47.6511C78.2911 47.4363 77.9924 47.3184 77.6829 47.3231C77.3734 47.3278 77.0784 47.4547 76.8622 47.6762C76.646 47.8976 76.5261 48.1956 76.5289 48.5051C76.5316 48.8146 76.6566 49.1104 76.8767 49.3281L79.979 52.357C80.1979 52.5707 80.4917 52.6903 80.7977 52.6903C81.1036 52.6903 81.3974 52.5707 81.6163 52.357L87.2056 46.9001C87.3168 46.7929 87.4058 46.6647 87.4673 46.5229C87.5288 46.3812 87.5617 46.2287 87.564 46.0742C87.5664 45.9197 87.5381 45.7662 87.4809 45.6227C87.4238 45.4791 87.3387 45.3483 87.2308 45.2377C87.1228 45.1272 86.9941 45.039 86.8519 44.9784C86.7098 44.9178 86.5571 44.8859 86.4025 44.8846C86.248 44.8832 86.0948 44.9124 85.9516 44.9705C85.8084 45.0287 85.6781 45.1145 85.5683 45.2232Z" fill="black"/>
<path d="M71.3086 14.3713C71.3086 16.494 71.9381 18.5691 73.1174 20.3341C74.2967 22.099 75.9729 23.4747 77.9341 24.287C79.8952 25.0993 82.0532 25.3118 84.1352 24.8977C86.2171 24.4835 88.1295 23.4613 89.6304 21.9603C91.1314 20.4592 92.1536 18.5468 92.5676 16.4649C92.9817 14.3829 92.7691 12.2249 91.9567 10.2638C91.1443 8.3027 89.7686 6.62652 88.0036 5.44725C86.2386 4.26799 84.1635 3.63859 82.0408 3.63867C79.1954 3.64198 76.4675 4.77381 74.4555 6.78586C72.4435 8.79791 71.3118 11.5259 71.3086 14.3713ZM90.4297 14.3713C90.4297 16.0305 89.9377 17.6524 89.0159 19.0319C88.0941 20.4114 86.7839 21.4867 85.2511 22.1216C83.7182 22.7565 82.0315 22.9227 80.4042 22.599C78.7769 22.2753 77.2822 21.4763 76.109 20.3031C74.9358 19.1299 74.1368 17.6352 73.8131 16.0079C73.4895 14.3806 73.6556 12.6939 74.2905 11.161C74.9254 9.62814 76.0007 8.31798 77.3802 7.3962C78.7597 6.47442 80.3817 5.98242 82.0408 5.98242C84.2649 5.98495 86.3972 6.86959 87.9698 8.44226C89.5425 10.0149 90.4271 12.1472 90.4297 14.3713Z" fill="black"/>
<path d="M77.5225 14.2578C77.5225 14.5686 77.6459 14.8667 77.8657 15.0865C78.0855 15.3062 78.3835 15.4297 78.6943 15.4297H86.343C86.6538 15.4297 86.9518 15.3062 87.1716 15.0865C87.3914 14.8667 87.5148 14.5686 87.5148 14.2578C87.5148 13.947 87.3914 13.6489 87.1716 13.4292C86.9518 13.2094 86.6538 13.0859 86.343 13.0859H78.6943C78.3835 13.0859 78.0855 13.2094 77.8657 13.4292C77.6459 13.6489 77.5225 13.947 77.5225 14.2578Z" fill="black"/>
<path d="M82.0407 72.4758C79.918 72.4758 77.843 73.1053 76.078 74.2846C74.313 75.4639 72.9374 77.1401 72.1251 79.1012C71.3128 81.0624 71.1002 83.2203 71.5143 85.3023C71.9285 87.3842 72.9506 89.2965 74.4516 90.7975C75.9526 92.2985 77.865 93.3207 79.9469 93.7348C82.0288 94.1489 84.1868 93.9364 86.1479 93.1241C88.109 92.3117 89.7852 90.9361 90.9645 89.1711C92.1439 87.4062 92.7733 85.3311 92.7733 83.2084C92.7701 80.363 91.6383 77.6349 89.6263 75.6229C87.6142 73.6108 84.8862 72.479 82.0407 72.4758ZM82.0407 91.5969C80.3815 91.5969 78.7596 91.1049 77.3801 90.1831C76.0005 89.2613 74.9253 87.9511 74.2904 86.4182C73.6555 84.8853 73.4894 83.1986 73.8131 81.5713C74.1368 79.944 74.9358 78.4493 76.109 77.2761C77.2823 76.1029 78.7771 75.304 80.4044 74.9803C82.0317 74.6567 83.7184 74.8229 85.2513 75.4579C86.7841 76.0929 88.0942 77.1681 89.016 78.5477C89.9377 79.9273 90.4296 81.5493 90.4296 83.2084C90.427 85.4325 89.5424 87.5648 87.9697 89.1375C86.3971 90.7101 84.2648 91.5948 82.0407 91.5973V91.5969Z" fill="black"/>
<path d="M85.5683 79.6418L80.7978 84.2994L78.514 82.0703C78.2911 81.8555 77.9924 81.7376 77.6829 81.7423C77.3734 81.747 77.0784 81.8739 76.8622 82.0953C76.646 82.3168 76.5261 82.6148 76.5289 82.9243C76.5316 83.2337 76.6566 83.5296 76.8767 83.7472L79.979 86.7761C80.1979 86.9898 80.4917 87.1095 80.7977 87.1095C81.1036 87.1095 81.3974 86.9898 81.6163 86.7761L87.2056 81.3193C87.3168 81.2121 87.4058 81.0839 87.4673 80.9421C87.5288 80.8004 87.5617 80.6479 87.564 80.4934C87.5664 80.3388 87.5381 80.1854 87.4809 80.0418C87.4238 79.8983 87.3387 79.7675 87.2308 79.6569C87.1228 79.5463 86.9941 79.4582 86.8519 79.3976C86.7098 79.337 86.5571 79.3051 86.4025 79.3038C86.248 79.3024 86.0948 79.3316 85.9516 79.3897C85.8084 79.4478 85.6781 79.5337 85.5683 79.6424V79.6418Z" fill="black"/>
<path d="M64.258 15.6251C64.5688 15.6251 64.8669 15.5016 65.0867 15.2819C65.3064 15.0621 65.4299 14.764 65.4299 14.4532C65.4299 14.1424 65.3064 13.8444 65.0867 13.6246C64.8669 13.4048 64.5688 13.2814 64.258 13.2814H48.9609C48.8148 13.2734 48.6686 13.2959 48.5317 13.3476C48.3948 13.3993 48.2701 13.479 48.1658 13.5816C48.0614 13.6841 47.9795 13.8074 47.9255 13.9434C47.8714 14.0794 47.8463 14.2252 47.8518 14.3714V83.2087C47.8449 83.3589 47.8684 83.5089 47.921 83.6498C47.9735 83.7907 48.054 83.9194 48.1577 84.0284C48.2613 84.1374 48.3858 84.2242 48.5239 84.2838C48.6619 84.3434 48.8106 84.3745 48.9609 84.3751H64.258C64.5688 84.3751 64.8669 84.2516 65.0867 84.0319C65.3064 83.8121 65.4299 83.514 65.4299 83.2032C65.4299 82.8924 65.3064 82.5944 65.0867 82.3746C64.8669 82.1548 64.5688 82.0314 64.258 82.0314H50.1955V50.0001H64.258C64.5688 50.0001 64.8669 49.8766 65.0867 49.6569C65.3064 49.4371 65.4299 49.139 65.4299 48.8282C65.4299 48.5174 65.3064 48.2194 65.0867 47.9996C64.8669 47.7798 64.5688 47.6564 64.258 47.6564H50.1955V15.6251H64.258Z" fill="black"/>
<path d="M31.7535 95.648C31.7564 95.6206 31.7584 95.5824 31.7592 95.555L32.7471 65.3402C33.0639 65.4142 33.3883 65.4516 33.7137 65.4515C36.1461 65.4515 38.0859 63.5417 38.0859 61.1976V35.0449C38.0859 35.0107 38.1236 34.9767 38.1209 34.9425C38.0128 33.8188 37.6137 32.7427 36.963 31.8203C36.3122 30.8978 35.4323 30.1609 34.41 29.6822C34.3637 29.6545 34.3147 29.6315 34.2639 29.6136L26.3672 27.3505V25.5859C28.5156 24.4394 30.2875 22.2417 30.6877 19.5974C31.3766 19.3585 31.9507 18.8696 32.2961 18.2274C32.6415 17.5852 32.733 16.8367 32.5525 16.1302C32.4563 15.7416 32.2682 15.3818 32.004 15.081C31.7397 14.7803 31.4072 14.5473 31.0342 14.4019L31.1367 12.8923C31.2845 10.7874 30.6398 8.70335 29.3293 7.04954C28.9645 6.59279 28.5504 6.17771 28.0945 5.81185C27.9853 4.45873 27.3726 3.19577 26.3774 2.27248C25.3822 1.34918 24.077 0.832693 22.7195 0.825037C21.362 0.817382 20.0509 1.31912 19.0454 2.23113C18.0399 3.14315 17.413 4.39911 17.2885 5.75091C16.2394 6.60637 15.4118 7.70191 14.8756 8.94486C14.3394 10.1878 14.1105 11.5416 14.2082 12.8917L14.3125 14.4066C13.9393 14.55 13.6062 14.7815 13.3417 15.0814C13.0771 15.3812 12.8889 15.7405 12.793 16.1286C12.7368 16.3576 12.7084 16.5925 12.7084 16.8283C12.7158 17.4407 12.9126 18.0357 13.2718 18.5318C13.631 19.0279 14.135 19.4006 14.7145 19.5988C14.9078 20.8851 15.4119 22.1048 16.1832 23.1522C16.9545 24.1996 17.9697 25.0431 19.1406 25.6095V27.3505L11.1758 29.6136C11.1082 29.6313 11.042 29.6542 10.9779 29.6822C9.95222 30.1597 9.06827 30.8957 8.4128 31.8179C7.75733 32.7401 7.35286 33.8168 7.23906 34.9425C7.23633 34.9767 7.22656 35.0107 7.22656 35.0449V61.1972C7.22656 63.5409 9.20566 65.4484 11.6381 65.4484C12.0329 65.4479 12.4259 65.3962 12.8074 65.2947L13.7969 95.5441C13.7969 95.5714 13.7996 95.6206 13.8025 95.648C13.8938 96.6189 14.342 97.5216 15.0603 98.1812C15.7787 98.8408 16.7162 99.2104 17.6914 99.2187H27.8646C28.8399 99.2104 29.7774 98.8408 30.4957 98.1812C31.2141 97.5216 31.6623 96.6189 31.7535 95.648ZM14.0387 31.2179L17.6105 30.2023L15.832 32.4023C15.6782 32.5924 15.5877 32.8258 15.5731 33.0699C15.5585 33.314 15.6206 33.5565 15.7506 33.7636L16.8693 35.5462L15.9025 36.0515C15.6785 36.1673 15.4982 36.3527 15.3887 36.5799C15.2793 36.8071 15.2466 37.0637 15.2957 37.3111L18.6596 54.2968H14.7924L14.0387 31.2179ZM19.1406 37.0378V44.3394L17.8309 37.7222L19.1406 37.0378ZM18.2463 33.2267L19.1406 32.1214V34.6511L18.2463 33.2267ZM21.4844 34.6915L22.1162 35.1798C22.3114 35.3277 22.5495 35.4077 22.7943 35.4077C23.0474 35.408 23.2943 35.3297 23.501 35.1835L24.0234 34.8175V54.2968H21.4844V34.6915ZM26.3672 36.5181C26.3672 36.5658 26.4648 36.6085 26.5326 36.6443L27.8559 37.3292L26.3672 44.7558V36.5181ZM26.3672 34.6222V31.88L27.4176 33.1781L26.3672 34.6222ZM30.2893 36.9238C30.3396 36.6754 30.3077 36.4175 30.1985 36.1888C30.0892 35.9602 29.9086 35.7733 29.6838 35.6564L28.7969 35.1947L29.7912 33.8275C29.9428 33.6189 30.0214 33.3661 30.0147 33.1084C30.0081 32.8506 29.9166 32.6022 29.7545 32.4017L28.0346 30.2765L31.5162 31.2632L30.7617 54.2968H26.7754L30.2893 36.9238ZM35.7422 35.0995V61.1972C35.7422 62.249 34.8539 63.1046 33.7137 63.1046C33.3999 63.1039 33.0903 63.0333 32.8072 62.898L33.7873 32.0249C34.9012 32.7087 35.7422 33.8476 35.7422 35.0995ZM28.7971 12.7304L28.7248 13.7779C28.2162 13.3526 27.8456 12.7858 27.6602 12.1493C27.6003 11.907 27.4646 11.69 27.2729 11.5301C27.0811 11.3702 26.8433 11.2758 26.5941 11.2605C21.6441 10.9574 20.6928 9.75794 19.8187 6.94114C20.9758 6.40657 23.2512 5.64642 25.2418 6.7263C26.1039 7.15984 26.8689 7.76398 27.4904 8.50208C28.4393 9.69839 28.9054 11.2068 28.7971 12.7298V12.7304ZM16.6252 11.2304C16.8023 10.2181 17.2334 9.26726 17.8781 8.46693C18.0436 8.90926 18.237 9.34065 18.457 9.75853C17.7815 10.1624 17.1651 10.6577 16.6252 11.2304ZM22.6891 3.16888C23.0952 3.1687 23.4973 3.24907 23.8721 3.40533C24.247 3.5616 24.5871 3.79065 24.8729 4.07923C23.4293 3.72208 21.9159 3.76258 20.4936 4.19642C20.4506 4.20872 20.4074 4.22181 20.3645 4.23548C20.6525 3.90107 21.0093 3.63266 21.4104 3.44853C21.8116 3.26441 22.2477 3.16889 22.6891 3.16849V3.16888ZM16.935 18.5331C16.9258 18.2272 16.7987 17.9367 16.5803 17.7224C16.3619 17.508 16.0691 17.3863 15.7631 17.3827H15.6389C15.5626 17.3845 15.4868 17.371 15.4158 17.3432C15.3449 17.3153 15.2801 17.2736 15.2255 17.2204C15.1708 17.1673 15.1272 17.1038 15.0973 17.0336C15.0674 16.9635 15.0518 16.8881 15.0514 16.8118C15.0513 16.767 15.057 16.7223 15.0684 16.6788C15.0794 16.644 15.1026 16.6142 15.1337 16.5948C15.1647 16.5755 15.2017 16.5679 15.2379 16.5734C15.2534 16.5732 15.2688 16.5751 15.2838 16.579C15.3557 16.5933 15.4288 16.6008 15.5021 16.6015H15.5578C15.8128 16.6019 16.061 16.5187 16.2643 16.3648C16.4677 16.2109 16.6151 15.9947 16.684 15.7492C17.4066 13.4749 18.7314 12.2699 19.9098 11.6304C21.1402 12.6958 22.9096 13.2992 25.6871 13.5431C26.1631 14.5966 27.2816 16.3072 29.599 16.5818C29.6608 16.5933 29.7233 16.5998 29.7861 16.6013H29.8365C29.9097 16.5997 29.9825 16.5913 30.0541 16.5763C30.0562 16.5763 30.2338 16.5415 30.2689 16.6896C30.2801 16.7297 30.2857 16.7712 30.2855 16.8128C30.2851 16.889 30.2695 16.9642 30.2397 17.0343C30.2099 17.1043 30.1664 17.1677 30.1118 17.2208C30.0572 17.2738 29.9926 17.3155 29.9217 17.3433C29.8508 17.3711 29.7751 17.3845 29.699 17.3827H29.5797C29.2737 17.3863 28.9809 17.508 28.7625 17.7224C28.5442 17.9368 28.4171 18.2273 28.4078 18.5331C28.3587 20.0218 27.7327 21.4331 26.6623 22.4689C25.5918 23.5046 24.1606 24.0836 22.6711 24.0836C21.1816 24.0836 19.7504 23.5046 18.6799 22.4689C17.6095 21.4331 16.9835 20.0218 16.9344 18.5331H16.935ZM22.7301 26.4433C23.1633 26.4442 23.5959 26.4093 24.0234 26.3388V31.9199L22.84 32.7859L21.4844 31.7826V26.3458C21.8964 26.4106 22.3129 26.443 22.7301 26.4427V26.4433ZM11.6381 63.1054C10.4979 63.1054 9.57031 62.249 9.57031 61.1972V35.0995C9.6472 34.4377 9.88237 33.8042 10.2559 33.2525C10.6295 32.7009 11.1304 32.2473 11.7164 31.9302L12.7264 62.814C12.3954 63.0048 12.0201 63.1053 11.6381 63.1054ZM16.1379 95.4359L14.8701 56.6406H30.6857L29.4182 95.4359C29.3776 95.8233 29.1977 96.1827 28.9119 96.4474C28.6262 96.7121 28.254 96.864 27.8646 96.8749H24.0234V59.1796H21.6797V96.8749H17.6914C17.3021 96.864 16.9299 96.7121 16.6442 96.4474C16.3584 96.1827 16.1785 95.8232 16.1379 95.4359Z" fill="black"/>
</svg>
