<svg width="100" height="100" viewBox="0 0 100 100" fill="none" xmlns="http://www.w3.org/2000/svg">
<path d="M17.9582 88.8672L14.8143 63.0859H10.4316L14.052 92.7734H29.0102L27.8191 88.8672H17.9582Z" fill="#ED8B00" fill-opacity="0.5"/>
<path d="M68.9007 76.2381C65.7314 77.7792 62.155 78.2755 58.6858 77.6557L44.0944 74.9688C42.4699 74.5681 40.7538 74.801 39.2948 75.6202C39.2767 75.6305 39.2585 75.6411 39.2409 75.6524L32.6183 79.8389L28.3019 65.6817L27.9231 66.019C26.7841 67.0322 25.4412 67.7898 23.9849 68.2407L28.7114 83.7452L35.3341 79.5586C35.3517 79.5473 35.3698 79.5368 35.388 79.5264C36.847 78.7073 38.5631 78.4744 40.1876 78.875L54.7802 81.5623C58.2494 82.1822 61.8257 81.6859 64.995 80.1448L89.2138 63.5163C88.9665 63.2655 88.6917 63.0436 88.3944 62.8547L68.9007 76.2381Z" fill="#ED8B00" fill-opacity="0.5"/>
<path d="M71.5969 23.3611L67.7527 22.99C67.3241 21.3882 66.678 19.8527 65.8324 18.4263L68.276 15.4755C68.4613 15.2517 68.5569 14.9671 68.5442 14.6768C68.5315 14.3866 68.4114 14.1114 68.2072 13.9046L63.8146 9.4556C63.6087 9.24685 63.3319 9.12293 63.039 9.10828C62.7461 9.09364 62.4584 9.18934 62.2326 9.3765L59.2756 11.8267C57.8497 10.9839 56.3171 10.3362 54.7189 9.90111L54.3478 6.097C54.3181 5.81129 54.1814 5.5474 53.9651 5.35838C53.7488 5.16936 53.469 5.06921 53.1818 5.07806H46.875C46.5878 5.0692 46.308 5.16934 46.0916 5.35836C45.8752 5.54737 45.7384 5.81125 45.7086 6.097L45.3375 9.92064C43.7361 10.3459 42.2006 10.9886 40.7738 11.831L37.823 9.38235C37.5986 9.19589 37.3126 9.09988 37.0211 9.1131C36.7296 9.12632 36.4535 9.24782 36.2469 9.45384L31.798 13.9015C31.5918 14.1078 31.47 14.3836 31.4563 14.675C31.4426 14.9663 31.5381 15.2524 31.724 15.4771L34.1734 18.4341C33.3307 19.8601 32.6831 21.3926 32.2479 22.9908L28.4031 23.3619C28.1133 23.3898 27.8442 23.5247 27.6483 23.7402C27.4525 23.9557 27.3439 24.2365 27.3438 24.5277V30.8351C27.3437 31.1265 27.4522 31.4074 27.6481 31.6231C27.8439 31.8387 28.1131 31.9737 28.4031 32.0017L32.2473 32.3728C32.6759 33.9746 33.3221 35.5101 34.1676 36.9365L31.724 39.8873C31.5379 40.112 31.4424 40.3981 31.4561 40.6896C31.4698 40.981 31.5917 41.2569 31.798 41.4632L36.2469 45.9121C36.4532 46.1185 36.7291 46.2404 37.0206 46.2541C37.3121 46.2678 37.5983 46.1722 37.823 45.9861L40.7807 43.5369C42.2066 44.3797 43.7393 45.0273 45.3375 45.4625L45.7086 49.3195C45.7362 49.6106 45.8707 49.8812 46.0861 50.079C46.3015 50.2768 46.5826 50.3878 46.875 50.3906H53.1824C53.475 50.3879 53.7562 50.2768 53.9717 50.0788C54.1871 49.8809 54.3215 49.61 54.3488 49.3187L54.7199 45.4685C56.3219 45.0388 57.8575 44.3915 59.2838 43.5449L62.2346 45.9863C62.4594 46.1723 62.7456 46.2677 63.037 46.2538C63.3285 46.24 63.6043 46.1179 63.8105 45.9115L68.2594 41.4623C68.4658 41.2559 68.5877 40.98 68.6014 40.6885C68.6151 40.397 68.5195 40.1109 68.3334 39.8861L65.8828 36.9291C66.7258 35.5027 67.3735 33.9697 67.8086 32.371L71.5977 32.0015C71.8875 31.9734 72.1564 31.8383 72.3521 31.6227C72.5478 31.4071 72.6563 31.1263 72.6562 30.8351V24.5277C72.6563 24.2363 72.5478 23.9554 72.3519 23.7397C72.1561 23.524 71.8869 23.389 71.5969 23.3611ZM70.3125 29.772L66.7527 30.1193C66.5057 30.1433 66.2727 30.2452 66.0873 30.4102C65.9019 30.5751 65.7737 30.7947 65.7211 31.0373C65.2968 32.9445 64.5308 34.7592 63.4602 36.3937C63.3251 36.603 63.2603 36.8499 63.2751 37.0986C63.2899 37.3472 63.3835 37.5847 63.5424 37.7765L65.8471 40.5589L62.9068 43.499L60.1242 41.1943C59.9301 41.0336 59.6893 40.9397 59.4376 40.9266C59.1859 40.9136 58.9367 40.982 58.727 41.1218C57.1015 42.1972 55.29 42.9606 53.3852 43.373C53.1416 43.4284 52.9217 43.5594 52.7569 43.7471C52.592 43.9348 52.4906 44.1698 52.4672 44.4185L52.1176 48.0468H47.9389L47.5904 44.4199C47.5668 44.1719 47.4653 43.9378 47.3004 43.751C47.1354 43.5643 46.9156 43.4347 46.6725 43.3806C44.765 42.9551 42.9503 42.188 41.3158 41.1166C41.1067 40.9813 40.8599 40.9163 40.6113 40.9308C40.3627 40.9453 40.1252 41.0386 39.9332 41.1972L37.1506 43.5005L34.2105 40.5601L36.5152 37.7775C36.6761 37.5833 36.77 37.3425 36.7831 37.0907C36.7962 36.8389 36.7277 36.5896 36.5879 36.3798C35.5123 34.7544 34.7489 32.943 34.3365 31.038C34.2838 30.7953 34.1554 30.5756 33.9697 30.4106C33.7841 30.2456 33.5508 30.1438 33.3035 30.1201L29.6875 29.7708V25.5912L33.3021 25.2429C33.5494 25.2191 33.7827 25.1174 33.9684 24.9524C34.154 24.7874 34.2825 24.5677 34.3352 24.3249C34.7596 22.4177 35.5256 20.603 36.5961 18.9685C36.7311 18.7592 36.796 18.5123 36.7812 18.2636C36.7664 18.015 36.6728 17.7775 36.5139 17.5857L34.2092 14.8033L37.1492 11.863L39.9318 14.1677C40.126 14.3285 40.3668 14.4224 40.6186 14.4354C40.8703 14.4485 41.1196 14.38 41.3293 14.2402C42.9547 13.1647 44.7662 12.4013 46.6711 11.989C46.9109 11.9451 47.13 11.8247 47.2955 11.6457C47.461 11.4667 47.564 11.2389 47.5891 10.9964L47.9389 7.42181H52.1174L52.4658 10.996C52.4902 11.2409 52.5926 11.4715 52.7578 11.6538C52.9231 11.8361 53.1425 11.9606 53.3838 12.0089C55.2905 12.4296 57.1053 13.1921 58.7402 14.2597C58.9501 14.394 59.1973 14.458 59.4459 14.4423C59.6946 14.4266 59.9318 14.3321 60.123 14.1724L62.9002 11.8701L65.7938 14.7997L63.4852 17.5867C63.3244 17.7808 63.2305 18.0216 63.2174 18.2733C63.2043 18.525 63.2727 18.7742 63.4125 18.9839C64.488 20.6091 65.2515 22.4203 65.6641 24.3249C65.7167 24.5677 65.8451 24.7874 66.0308 24.9523C66.2164 25.1173 66.4497 25.2191 66.6969 25.2429L70.3125 25.5919V29.772Z" fill="black"/>
<path d="M50.0283 14.2292C47.3677 14.2292 44.7669 15.0182 42.5547 16.4963C40.3425 17.9745 38.6183 20.0754 37.6002 22.5335C36.582 24.9915 36.3156 27.6963 36.8347 30.3058C37.3537 32.9152 38.6349 35.3122 40.5162 37.1935C42.3975 39.0748 44.7945 40.356 47.4039 40.8751C50.0134 41.3941 52.7182 41.1277 55.1762 40.1096C57.6343 39.0914 59.7352 37.3672 61.2134 35.155C62.6915 32.9428 63.4805 30.342 63.4805 27.6814C63.4764 24.1149 62.0578 20.6956 59.536 18.1737C57.0141 15.6519 53.5948 14.2333 50.0283 14.2292ZM50.0283 38.7898C47.8313 38.7898 45.6836 38.1383 43.8568 36.9177C42.0301 35.6971 40.6063 33.9622 39.7655 31.9324C38.9247 29.9026 38.7048 27.6691 39.1334 25.5143C39.562 23.3594 40.62 21.3801 42.1735 19.8266C43.727 18.273 45.7064 17.2151 47.8612 16.7864C50.016 16.3578 52.2495 16.5778 54.2793 17.4186C56.3091 18.2593 58.044 19.6831 59.2646 21.5099C60.4852 23.3367 61.1367 25.4844 61.1367 27.6814C61.1332 30.6264 59.9617 33.4497 57.8792 35.5321C55.7967 37.6144 52.9733 38.7857 50.0283 38.789V38.7898Z" fill="black"/>
<path d="M54.2697 23.6482L48.5441 29.2383L45.7303 26.4912C45.6204 26.3825 45.4901 26.2967 45.3469 26.2386C45.2038 26.1804 45.0505 26.1512 44.896 26.1526C44.7415 26.1539 44.5887 26.1858 44.4466 26.2464C44.3045 26.3071 44.1757 26.3952 44.0678 26.5057C43.9598 26.6163 43.8748 26.7471 43.8176 26.8907C43.7604 27.0342 43.7322 27.1877 43.7345 27.3422C43.7369 27.4967 43.7697 27.6492 43.8313 27.791C43.8928 27.9327 43.9817 28.0609 44.093 28.1681L47.7258 31.7146C47.9447 31.9283 48.2385 32.048 48.5444 32.048C48.8504 32.048 49.1442 31.9283 49.3631 31.7146L55.9074 25.3252C56.0187 25.2179 56.1076 25.0897 56.1691 24.948C56.2307 24.8062 56.2635 24.6537 56.2659 24.4992C56.2682 24.3447 56.24 24.1913 56.1828 24.0477C56.1256 23.9042 56.0406 23.7733 55.9326 23.6628C55.8247 23.5522 55.6959 23.4641 55.5538 23.4035C55.4117 23.3429 55.2589 23.311 55.1044 23.3096C54.9499 23.3083 54.7966 23.3375 54.6534 23.3956C54.5103 23.4537 54.38 23.5396 54.2701 23.6482H54.2697Z" fill="black"/>
<path d="M82.5268 60.5185L82.1536 60.7198C80.3815 58.6159 77.3505 57.8097 75.0366 58.9815C75.0278 58.986 75.019 58.9905 75.0104 58.9952L74.0413 59.5173C72.8141 58.4935 71.3026 57.8706 69.7104 57.7326C68.1183 57.5945 66.5221 57.948 65.137 58.7452L59.6727 61.7187H52.3956C50.8282 61.7159 49.2815 61.3609 47.8698 60.6798L46.8663 60.1937C43.9955 58.7967 40.794 58.2215 37.6165 58.5318C34.4389 58.842 31.4092 60.0256 28.8628 61.9515C28.8367 61.9706 28.8119 61.9909 28.7882 62.0122L26.3651 64.1692C25.4785 64.9573 24.4337 65.5468 23.3007 65.8983L21.9472 61.4183C21.876 61.1735 21.7294 60.9575 21.5282 60.801C21.3271 60.6445 21.0816 60.5555 20.8268 60.5468H9.10809C8.93971 60.5559 8.77496 60.5992 8.62395 60.6743C8.47293 60.7493 8.33885 60.8544 8.22992 60.9831C8.12099 61.1119 8.03951 61.2615 7.99048 61.4228C7.94145 61.5842 7.92591 61.7538 7.94481 61.9214L11.8511 93.9222C11.8871 94.2031 12.0259 94.4608 12.2408 94.6454C12.4556 94.83 12.7312 94.9284 13.0143 94.9218H30.5925C30.7726 94.931 30.9523 94.8965 31.1162 94.8211C31.2801 94.7457 31.4232 94.6317 31.5334 94.4889C31.6436 94.346 31.7175 94.1786 31.7488 94.001C31.7802 93.8234 31.768 93.6408 31.7134 93.4689L29.4212 85.9607L36.5591 81.453C37.5036 80.9329 38.6104 80.791 39.6556 81.056C39.6798 81.062 39.7044 81.0687 39.729 81.073L54.3579 83.7683C58.3508 84.4826 62.4675 83.9016 66.1067 82.1099C66.1564 82.0853 66.2043 82.0572 66.2501 82.0259L91.5542 64.6519C91.8004 64.4828 91.9728 64.2261 92.0361 63.9342C92.0994 63.6423 92.0489 63.3372 91.8948 63.0813C90.9636 61.5303 89.4699 60.3982 87.7249 59.9208C85.9799 59.4434 84.118 59.6575 82.5268 60.5185ZM76.1079 61.0667C77.3733 60.4337 78.9573 60.928 80.0058 61.8786L70.5116 67.0007L70.0321 67.2546C69.7371 66.4469 69.3197 65.6894 68.7946 65.0085L76.1079 61.0667ZM66.27 60.7958C66.2794 60.7907 66.2895 60.7856 66.2979 60.7802C67.1236 60.3028 68.0597 60.0499 69.0134 60.0465C69.9671 60.043 70.905 60.2893 71.7341 60.7606L67.0282 63.2962C66.1576 62.6686 65.1745 62.2143 64.1323 61.9579L66.27 60.7958ZM14.0518 92.578L10.4315 62.8905H19.9589L29.01 92.578H14.0518ZM64.9942 80.0452C61.825 81.5865 58.2486 82.0828 54.7794 81.4628L40.188 78.7759C38.5635 78.3756 36.8476 78.6084 35.3886 79.4271C35.3702 79.4372 35.352 79.448 35.3343 79.4593L28.7118 83.646L23.9852 68.1413C25.4416 67.6906 26.7845 66.9331 27.9235 65.9198L30.31 63.795C32.5116 62.1409 35.1269 61.1263 37.868 60.863C40.6092 60.5997 43.3698 61.0979 45.846 62.3026L46.8493 62.7896C48.5795 63.6243 50.4752 64.0593 52.3962 64.0624H62.1288C63.5225 64.064 64.8733 64.545 65.9544 65.4246C67.0355 66.3042 67.7812 67.5288 68.0663 68.8931L61.1153 68.5778C58.5461 68.4621 55.9716 68.5809 53.4239 68.9325C53.2695 68.9513 53.1203 69.0005 52.9852 69.0775C52.85 69.1545 52.7315 69.2576 52.6366 69.3808C52.5417 69.5041 52.4722 69.645 52.4324 69.7953C52.3925 69.9457 52.3829 70.1025 52.4042 70.2565C52.4255 70.4106 52.4773 70.5589 52.5566 70.6928C52.6358 70.8266 52.7409 70.9434 52.8657 71.0362C52.9905 71.129 53.1326 71.1961 53.2836 71.2334C53.4346 71.2708 53.5915 71.2777 53.7452 71.2538C56.1514 70.9213 58.5829 70.809 61.0095 70.9185L69.3102 71.294C69.328 71.294 69.3456 71.294 69.3634 71.294C69.6742 71.294 69.9722 71.1706 70.192 70.9508C70.4118 70.731 70.5352 70.433 70.5352 70.1222C70.5352 69.9616 70.5298 69.8021 70.5208 69.6437L71.613 69.0677L83.6382 62.5802C84.5321 62.0964 85.559 61.9163 86.5642 62.067C87.5693 62.2178 88.4983 62.6911 89.211 63.4157L64.9942 80.0452Z" fill="black"/>
<path d="M17.3667 88.2268C17.3667 88.9221 17.5729 89.6018 17.9592 90.18C18.3455 90.7581 18.8946 91.2087 19.537 91.4748C20.1794 91.7409 20.8862 91.8105 21.5682 91.6749C22.2502 91.5392 22.8766 91.2044 23.3682 90.7127C23.8599 90.221 24.1947 89.5946 24.3304 88.9127C24.4661 88.2307 24.3964 87.5238 24.1303 86.8814C23.8643 86.239 23.4136 85.69 22.8355 85.3037C22.2574 84.9174 21.5777 84.7112 20.8823 84.7112C19.9503 84.7123 19.0567 85.083 18.3976 85.7421C17.7385 86.4011 17.3678 87.2947 17.3667 88.2268ZM20.8823 87.0549C21.1141 87.0549 21.3407 87.1237 21.5334 87.2524C21.7261 87.3812 21.8763 87.5642 21.965 87.7783C22.0537 87.9925 22.0769 88.2281 22.0317 88.4554C21.9865 88.6827 21.8749 88.8916 21.711 89.0554C21.5471 89.2193 21.3383 89.3309 21.1109 89.3762C20.8836 89.4214 20.648 89.3982 20.4339 89.3095C20.2197 89.2208 20.0367 89.0706 19.9079 88.8779C19.7792 88.6851 19.7104 88.4586 19.7104 88.2268C19.7108 87.9161 19.8343 87.6182 20.054 87.3985C20.2737 87.1788 20.5716 87.0552 20.8823 87.0549Z" fill="black"/>
</svg>
